<svg
    xmlns="http://www.w3.org/2000/svg"
    version="1.1"
    xmlns:xlink="http://www.w3.org/1999/xlink"
    width="512"
    height="512"
    x="0"
    y="0"
    viewBox="0 0 32 32"
    style="enable-background: new 0 0 512 512"
    xml:space="preserve"
    class=""
>
    <g>
        <path
            fill="#9e9e9e"
            d="M25 31H7c-2.76 0-5-2.24-5-5V8c0-2.76 2.24-5 5-5h18c2.76 0 5 2.24 5 5v18c0 2.76-2.24 5-5 5z"
            opacity="1"
            data-original="#9e9e9e"
        ></path>
        <path
            fill="#e0e0e0"
            d="M30 8v16c0 2.76-2.24 5-5 5H7c-2.76 0-5-2.24-5-5V8c0-2.76 2.24-5 5-5h18c2.76 0 5 2.24 5 5z"
            opacity="1"
            data-original="#e0e0e0"
        ></path>
        <path
            fill="#ef5350"
            d="M30 11H2V8c0-2.76 2.24-5 5-5h18c2.76 0 5 2.24 5 5z"
            opacity="1"
            data-original="#ef5350"
            class=""
        ></path>
        <path
            fill="#ffca28"
            d="M8 7c-.55 0-1-.45-1-1V2c0-.55.45-1 1-1s1 .45 1 1v4c0 .55-.45 1-1 1zM24 7c-.55 0-1-.45-1-1V2c0-.55.45-1 1-1s1 .45 1 1v4c0 .55-.45 1-1 1z"
            opacity="1"
            data-original="#ffca28"
            class=""
        ></path>
    </g>
</svg>
